HIERARCHY
ROOT Hips
{
	OFFSET	0.00	0.00	0.00
	CHANNELS 6 Xposition Yposition Zposition Zrotation Xrotation Yrotation
	JOINT LeftUpLeg
	{
		OFFSET	 0.126116	-0.014019	-0.065224
		CHANNELS 3 Zrotation Xrotation Yrotation
		JOINT LeftLeg
		{
			OFFSET	 0.000000	 0.000000	 0.569914
			CHANNELS 3 Zrotation Xrotation Yrotation
			JOINT LeftFoot
			{
				OFFSET	 0.000000	 0.000000	 0.544423
				CHANNELS 3 Zrotation Xrotation Yrotation
				JOINT LeftToeBase
				{
					OFFSET	 0.000000	 0.000000	 0.207117
					CHANNELS 3 Zrotation Xrotation Yrotation
					End Site
					{
						OFFSET	 0.000000	 0.000000	 0.207117
					}
				}
			}
		}
	}
	JOINT RightUpLeg
	{
		OFFSET	-0.124023	-0.008373	-0.065224
		CHANNELS 3 Zrotation Xrotation Yrotation
		JOINT RightLeg
		{
			OFFSET	 0.000000	 0.000000	 0.570047
			CHANNELS 3 Zrotation Xrotation Yrotation
			JOINT RightFoot
			{
				OFFSET	 0.000000	 0.000000	 0.544354
				CHANNELS 3 Zrotation Xrotation Yrotation
				JOINT RightToeBase
				{
					OFFSET	 0.000000	 0.000000	 0.207540
					CHANNELS 3 Zrotation Xrotation Yrotation
					End Site
					{
						OFFSET	 0.000000	 0.000000	 0.207540
					}
				}
			}
		}
	}
	JOINT Spine
	{
		OFFSET	 0.000184	-0.007763	 0.117403
		CHANNELS 3 Zrotation Xrotation Yrotation
		JOINT Spine1
		{
			OFFSET	 0.000000	 0.000000	 0.137269
			CHANNELS 3 Zrotation Xrotation Yrotation
			JOINT Spine2
			{
				OFFSET	 0.000000	 0.000000	 0.156879
				CHANNELS 3 Zrotation Xrotation Yrotation
				JOINT LeftShoulder
				{
					OFFSET	 0.080501	-0.002496	 0.160144
					CHANNELS 3 Zrotation Xrotation Yrotation
					JOINT LeftArm
					{
						OFFSET	 0.000000	 0.000000	 0.164363
						CHANNELS 3 Zrotation Xrotation Yrotation
						JOINT LeftForeArm
						{
							OFFSET	 0.000000	 0.000000	 0.364576
							CHANNELS 3 Zrotation Xrotation Yrotation
							JOINT LeftHand
							{
								OFFSET	 0.000000	 0.000000	 0.360812
								CHANNELS 3 Zrotation Xrotation Yrotation
								JOINT LeftHandIndex1
								{
									OFFSET	 0.000000	 0.000000	 0.086006
									CHANNELS 3 Zrotation Xrotation Yrotation
									JOINT LeftHandIndex2
									{
										OFFSET	 0.000000	 0.000000	 0.047236
										CHANNELS 3 Zrotation Xrotation Yrotation
										JOINT LeftHandIndex3
										{
											OFFSET	-0.004284	-0.000551	 0.038166
											CHANNELS 3 Zrotation Xrotation Yrotation
											End Site
											{
												OFFSET	-0.004284	-0.000551	 0.038166
											}
										}
									}
								}
							}
						}
					}
				}
				JOINT Neck
				{
					OFFSET	 0.000000	 0.000000	 0.176489
					CHANNELS 3 Zrotation Xrotation Yrotation
					JOINT Head
					{
						OFFSET	 0.000000	-0.001747	 0.077940
						CHANNELS 3 Zrotation Xrotation Yrotation
						End Site
						{
							OFFSET	 0.000000	-0.001747	 0.077940
						}
					}
				}
				JOINT RightShoulder
				{
					OFFSET	-0.080363	 0.000306	 0.159706
					CHANNELS 3 Zrotation Xrotation Yrotation
					JOINT RightArm
					{
						OFFSET	 0.000000	 0.000000	 0.164196
						CHANNELS 3 Zrotation Xrotation Yrotation
						JOINT RightForeArm
						{
							OFFSET	 0.000000	 0.000000	 0.365611
							CHANNELS 3 Zrotation Xrotation Yrotation
							JOINT RightHand
							{
								OFFSET	 0.000000	 0.000000	 0.360648
								CHANNELS 3 Zrotation Xrotation Yrotation
								JOINT RightHandIndex1
								{
									OFFSET	 0.000000	 0.000000	 0.069977
									CHANNELS 3 Zrotation Xrotation Yrotation
									JOINT RightHandIndex2
									{
										OFFSET	 0.000000	 0.000000	 0.052305
										CHANNELS 3 Zrotation Xrotation Yrotation
										JOINT RightHandIndex3
										{
											OFFSET	 0.009002	-0.000782	 0.042196
											CHANNELS 3 Zrotation Xrotation Yrotation
											End Site
											{
												OFFSET	 0.009002	-0.000782	 0.042196
											}
										}
									}
								}
							}
						}
					}
				}
			}
		}
	}
}
MOTION
Frames:    12
Frame Time: 0.03333334
-0.000106	 0.016970	 1.310306	 0.001870	 0.015892	 0.053311	 10.786460	-2.037085	 176.900700	 1.482172	-11.217840	-0.653734	-6.665125	 62.903640	 0.849638	-2.385833	 28.452760	 0.000004	-10.912640	-2.396299	-177.042400	-1.465210	-11.513070	 0.659062	 6.423967	 62.948310	-0.741318	 2.384658	 28.388730	 0.000004	 28.264540	 1.743409	 0.129928	-0.503142	 6.980859	-0.153341	 1.557928	-8.907055	 0.414478	-91.776150	 78.527470	 180.000000	 45.068240	 33.158440	-53.826780	-25.171360	 3.453236	-10.552360	-24.367210	-29.121390	-1.590972	-2.635965	 4.993658	 6.788941	-5.165319	 0.784187	 3.516649	-5.225038	 0.466231	 0.424329	-0.000002	-3.783157	-0.089647	 1.482343	 3.028684	-0.039204	 89.782160	 78.203890	 179.999900	-2.191499	 12.309820	 110.714800	-17.349850	 3.136109	 10.671630	-6.560446	-28.354910	-10.238000	 6.112037	 4.509576	-0.364401	 4.968462	 1.518543	-9.347576	 5.168945	 0.703820	 2.021906
-0.000126	 0.016850	 1.311899	 0.001736	 0.016296	 0.045060	 11.158410	-2.045052	 176.884400	 1.482509	-11.188390	-0.651972	-6.632839	 62.608580	 0.828543	-2.385833	 28.452760	 0.000004	-11.282450	-2.429781	-177.014600	-1.464980	-11.532140	 0.660185	 6.396862	 62.679680	-0.725209	 2.384658	 28.388730	 0.000004	 30.644580	 1.732431	 0.120328	-0.394737	 7.017824	-0.114782	 1.233045	-8.958280	 0.326697	-91.776170	 78.527490	 180.000000	 45.159460	 33.158800	-53.904630	-22.553750	 2.530998	-9.069745	-20.960870	-34.561830	 0.909363	-2.635965	 4.993658	 6.788941	-5.165319	 0.784187	 3.516649	-5.225038	 0.466231	 0.424329	-0.000002	-3.783157	-0.089647	 1.177434	 3.014771	-0.030999	 89.782130	 78.203870	 180.000000	-2.256316	 12.434630	 110.634300	-20.073220	 2.209057	 9.176283	-11.209030	-33.144550	-13.381520	 6.112037	 4.509576	-0.364401	 4.968462	 1.518543	-9.347576	 5.168945	 0.703820	 2.021906
-0.000116	 0.016675	 1.313637	 0.001520	 0.016509	 0.034445	 11.609550	-2.056022	 176.865600	 1.482887	-11.156130	-0.650043	-6.594114	 62.252540	 0.803652	-2.385833	 28.452760	 0.000004	-11.730780	-2.471949	-176.980700	-1.464681	-11.558260	 0.661720	 6.364205	 62.355580	-0.706097	 2.384658	 28.388730	 0.000004	 32.417580	 1.722651	 0.109018	-0.261661	 7.051549	-0.067526	 0.834269	-9.004607	 0.218172	-91.776180	 78.527450	 180.000000	 45.313850	 33.198050	-54.090570	-19.101240	 1.553181	-7.060022	-16.447420	-39.300050	 4.538339	-2.635965	 4.993658	 6.788941	-5.165319	 0.784187	 3.516649	-5.225038	 0.466231	 0.424329	-0.000002	-3.783157	-0.089647	 0.803650	 3.002241	-0.021074	 89.782130	 78.203890	 180.000000	-2.308059	 12.636670	 110.499200	-23.665890	 1.223724	 7.146151	-16.805350	-37.023570	-17.593130	 6.112037	 4.509576	-0.364401	 4.968462	 1.518543	-9.347576	 5.168945	 0.703820	 2.021906
-0.000116	 0.016579	 1.314869	 0.001042	 0.016827	 0.028191	 11.897560	-2.062503	 176.853300	 1.483144	-11.133960	-0.648718	-6.568900	 62.024780	 0.787281	-2.385833	 28.452760	 0.000004	-12.016380	-2.496818	-176.959500	-1.464538	-11.570060	 0.662415	 6.342550	 62.146430	-0.693098	 2.384658	 28.388730	 0.000004	 32.858930	 1.718477	 0.101557	-0.175879	 7.065922	-0.038767	 0.578183	-9.024642	 0.148876	-91.776180	 78.527450	 180.000000	 45.431710	 33.240860	-54.252710	-16.756390	 1.038512	-5.663832	-13.571120	-41.011630	 6.849267	-2.635965	 4.993658	 6.788941	-5.165319	 0.784187	 3.516649	-5.225038	 0.466231	 0.424329	-0.000002	-3.783157	-0.089647	 0.563706	 2.996705	-0.014759	 89.782140	 78.203890	 180.000000	-3.085560	 12.642050	 110.291500	-26.101580	 0.706102	 5.737613	-20.189400	-38.137220	-19.999370	 6.112037	 4.509576	-0.364401	 4.968462	 1.518543	-9.347576	 5.168945	 0.703820	 2.021906
-0.000147	 0.015793	 1.315972	 0.000295	 0.017153	 0.019867	 12.060930	-2.048753	 176.848200	 1.483465	-11.105510	-0.647020	-6.556878	 61.883770	 0.781161	-2.385833	 28.452760	 0.000004	-12.176640	-2.477341	-176.935200	-1.464364	-11.584470	 0.663263	 6.353098	 62.056890	-0.711425	 2.384658	 28.388730	 0.000004	 32.579090	 1.715445	 0.091842	-0.062843	 7.076880	-0.001152	 0.240972	-9.039845	 0.057477	-91.776180	 78.527470	 180.000000	 45.624530	 33.329940	-54.543360	-13.536190	 0.529356	-3.721620	-10.197590	-41.557130	 9.332262	-2.635965	 4.993658	 6.788941	-5.165319	 0.784187	 3.516649	-5.225038	 0.466231	 0.424329	-0.000002	-3.783157	-0.089647	 0.247882	 2.992462	-0.006489	 89.782100	 78.203900	-180.000000	-5.542820	 12.412390	 109.893600	-29.406620	 0.192511	 3.776422	-23.966830	-37.936780	-22.209300	 6.112037	 4.509576	-0.364401	 4.968462	 1.518543	-9.347576	 5.168945	 0.703820	 2.021906
-0.000196	 0.014499	 1.316642	-0.000280	 0.017439	 0.010544	 12.063730	-2.016756	 176.852200	 1.483822	-11.074620	-0.645174	-6.560251	 61.859100	 0.786013	-2.385833	 28.452760	 0.000004	-12.176820	-2.418495	-176.912500	-1.464208	-11.597720	 0.664042	 6.392914	 62.105630	-0.756226	 2.384658	 28.388730	 0.000004	 31.291150	 1.715208	 0.082568	 0.050710	 7.078729	 0.037917	-0.098538	-9.042424	-0.035213	-91.776210	 78.527450	-180.000000	 45.851640	 33.459290	-54.913530	-10.170870	 0.236841	-1.670099	-7.642921	-40.156170	 10.681310	-2.635965	 4.993658	 6.788941	-5.165319	 0.784187	 3.516649	-5.225038	 0.466231	 0.424329	-0.000002	-3.783157	-0.089647	-0.070009	 2.991435	 0.001814	 89.782110	 78.203850	 180.000000	-9.225674	 12.334940	 109.251800	-32.553730	-0.100494	 1.704927	-26.745900	-35.994160	-22.935960	 6.112037	 4.509576	-0.364401	 4.968462	 1.518543	-9.347576	 5.168945	 0.703820	 2.021906
-0.000236	 0.013161	 1.317271	-0.000557	 0.017831	-0.000125	 12.066480	-1.981882	 176.857100	 1.484234	-11.038740	-0.643030	-6.562918	 61.831660	 0.790156	-2.385833	 28.452760	 0.000004	-12.177340	-2.357631	-176.888300	-1.464075	-11.609110	 0.664713	 6.433149	 62.154360	-0.801423	 2.384658	 28.388730	 0.000004	 28.933700	 1.717894	 0.073662	 0.166237	 7.070835	 0.079825	-0.445199	-9.031724	-0.130725	-91.776150	 78.527450	 180.000000	 46.100120	 33.609850	-55.332280	-6.645937	 0.141691	-1.386999	-6.069933	-36.837750	 10.585230	-2.635965	 4.993658	 6.788941	-5.165319	 0.784187	 3.516649	-5.225038	 0.466231	 0.424329	-0.000002	-3.783157	-0.089647	-0.394514	 2.993877	 0.010296	 89.782110	 78.203850	 180.000000	-13.535540	 12.771020	 108.056100	-35.336400	-0.191791	 1.403704	-27.853370	-32.615760	-22.228680	 6.112037	 4.509576	-0.364401	 4.968462	 1.518543	-9.347576	 5.168945	 0.703820	 2.021906
-0.000264	 0.011848	 1.317855	-0.000798	 0.017990	-0.010977	 12.069020	-1.948829	 176.862500	 1.484602	-11.006320	-0.641095	-6.565838	 61.806250	 0.794488	-2.385833	 28.452760	 0.000004	-12.177870	-2.298765	-176.864400	-1.463934	-11.620990	 0.665415	 6.472375	 62.202140	-0.845459	 2.384658	 28.388730	 0.000004	 25.671210	 1.723336	 0.065244	 0.277865	 7.054426	 0.121030	-0.780541	-9.008834	-0.223216	-91.776180	 78.527450	 180.000000	 46.357930	 33.771770	-55.776670	-3.193665	-0.127105	-3.514302	-5.417089	-32.022490	 9.147618	-2.635965	 4.993658	 6.788941	-5.165319	 0.784187	 3.516649	-5.225038	 0.466231	 0.424329	-0.000002	-3.783157	-0.089647	-0.708580	 2.999561	 0.018538	 89.782140	 78.203850	 180.000000	-18.237250	 13.618960	 106.298100	-37.688910	-0.452800	 3.516261	-27.356670	-28.147180	-20.327080	 6.112037	 4.509576	-0.364401	 4.968462	 1.518543	-9.347576	 5.168945	 0.703820	 2.021906
-0.000293	 0.010397	 1.318334	-0.001001	 0.017913	-0.023563	 12.071770	-1.912912	 176.869200	 1.484986	-10.972710	-0.639087	-6.569307	 61.779340	 0.799591	-2.385833	 28.452760	 0.000004	-12.178530	-2.233425	-176.837300	-1.463773	-11.634560	 0.666212	 6.515996	 62.255410	-0.894399	 2.384658	 28.388730	 0.000004	 21.016170	 1.732625	 0.056150	 0.400617	 7.026127	 0.167523	-1.149880	-8.969062	-0.325140	-91.776160	 78.527470	 180.000000	 46.651890	 33.960040	-56.309100	 0.598670	-0.720893	-5.828343	-5.355737	-25.240510	 6.396226	-2.635965	 4.993658	 6.788941	-5.165319	 0.784187	 3.516649	-5.225038	 0.466231	 0.424329	-0.000002	-3.783157	-0.089647	-1.054791	 3.009668	 0.027696	 89.782110	 78.203850	 180.000000	-23.893070	 15.306400	 103.964500	-39.892290	-1.034874	 5.815497	-25.316050	-22.144480	-17.239100	 6.112037	 4.509576	-0.364401	 4.968462	 1.518543	-9.347576	 5.168945	 0.703820	 2.021906
-0.000317	 0.009222	 1.318494	-0.001127	 0.017653	-0.034317	 12.073910	-1.884330	 176.875200	 1.485271	-10.947700	-0.637595	-6.572497	 61.758560	 0.804138	-2.385833	 28.452760	 0.000004	-12.179100	-2.180028	-176.814800	-1.463627	-11.646660	 0.666924	 6.552047	 62.299710	-0.934818	 2.384658	 28.388730	 0.000004	 16.476930	 1.742791	 0.048855	 0.500325	 6.995066	 0.206180	-1.450330	-8.925246	-0.407941	-91.776190	 78.527470	-180.000000	 46.894610	 34.116270	-56.774460	 3.634222	-1.424922	-7.645434	-5.583821	-18.930910	 3.604109	-2.635965	 4.993658	 6.788941	-5.165319	 0.784187	 3.516649	-5.225038	 0.466231	 0.424329	-0.000002	-3.783157	-0.089647	-1.336826	 3.021158	 0.035240	 89.782160	 78.203870	 179.999900	-28.677700	 16.909680	 101.800200	-41.406720	-1.726351	 7.624187	-22.786210	-16.709710	-14.274890	 6.112037	 4.509576	-0.364401	 4.968462	 1.518543	-9.347576	 5.168945	 0.703820	 2.021906
-0.000339	 0.007914	 1.318622	-0.001210	 0.017167	-0.046547	 12.076190	-1.853266	 176.882200	 1.485566	-10.921700	-0.636044	-6.576160	 61.736480	 0.809327	-2.385833	 28.452760	 0.000004	-12.179780	-2.120948	-176.789600	-1.463470	-11.659990	 0.667709	 6.591900	 62.348600	-0.979447	 2.384658	 28.388730	 0.000004	 10.868260	 1.756610	 0.040965	 0.608710	 6.952739	 0.249339	-1.777490	-8.865475	-0.497919	-91.776180	 78.527490	 180.000000	 47.164550	 34.287270	-57.306420	 6.841582	-2.392754	-9.524035	-5.984535	-11.714710	 0.369524	-2.635965	 4.993658	 6.788941	-5.165319	 0.784187	 3.516649	-5.225038	 0.466231	 0.424329	-0.000002	-3.783157	-0.089647	-1.644321	 3.036874	 0.043576	 89.782160	 78.203890	 179.999900	-34.130600	 19.632840	 99.025590	-42.799020	-2.680989	 9.495997	-19.289140	-10.669150	-10.906270	 6.112037	 4.509576	-0.364401	 4.968462	 1.518543	-9.347576	 5.168945	 0.703820	 2.021906
-0.000352	 0.006402	 1.318947	-0.001218	 0.016392	-0.060433	 12.078540	-1.819962	 176.890500	 1.485855	-10.896030	-0.634510	-6.580673	 61.713610	 0.815576	-2.385833	 28.452760	 0.000004	-12.180650	-2.055080	-176.761200	-1.463289	-11.675130	 0.668598	 6.636369	 62.403230	-1.029211	 2.384658	 28.388730	 0.000004	 4.105043	 1.775142	 0.032280	 0.727021	 6.895883	 0.297752	-2.135277	-8.785157	-0.595869	-91.776210	 78.527450	-180.000000	 47.462150	 34.478740	-57.913330	 10.177050	-3.648965	-11.408380	-6.625071	-4.085942	-2.953150	-2.635965	 4.993658	 6.788941	-5.165319	 0.784187	 3.516649	-5.225038	 0.466231	 0.424329	-0.000002	-3.783157	-0.089647	-1.981291	 3.058279	 0.052881	 89.782080	 78.203870	-180.000000	-40.082420	 22.961730	 95.206100	-44.081050	-3.920422	 11.377930	-15.274580	-4.376791	-7.391259	 6.112037	 4.509576	-0.364401	 4.968462	 1.518543	-9.347576	 5.168945	 0.703820	 2.021906
